<svg width="17" height="22" viewBox="0 0 17 22" fill="none" xmlns="http://www.w3.org/2000/svg">
<g filter="url(#filter0_d)">
<path d="M2 20V14.8571H4.55V20H2ZM12.2 20V14.8571H14.75V20H12.2ZM4.55 14.8571V12.2857H7.1V14.8571H4.55ZM9.65 14.8571V12.2857H12.2V14.8571H9.65ZM7.1 12.2857V9.71429H9.65V12.2857H7.1ZM4.55 9.71429V7.14286H7.1V9.71429H4.55ZM9.65 9.71429V7.14286H12.2V9.71429H9.65ZM2 7.14286V2H4.55V7.14286H2ZM12.2 7.14286V2H14.75V7.14286H12.2Z" fill="white"/>
</g>
<defs>
<filter id="filter0_d" x="0" y="0" width="16.75" height="22" filterUnits="userSpaceOnUse" color-interpolation-filters="sRGB">
<feFlood flood-opacity="0" result="BackgroundImageFix"/>
<feColorMatrix in="SourceAlpha" type="matrix" values="0 0 0 0 0 0 0 0 0 0 0 0 0 0 0 0 0 0 127 0"/>
<feOffset/>
<feGaussianBlur stdDeviation="1"/>
<feColorMatrix type="matrix" values="0 0 0 0 1 0 0 0 0 1 0 0 0 0 1 0 0 0 1 0"/>
<feBlend mode="normal" in2="BackgroundImageFix" result="effect1_dropShadow"/>
<feBlend mode="normal" in="SourceGraphic" in2="effect1_dropShadow" result="shape"/>
</filter>
</defs>
</svg>
