<svg width="36" height="32" viewBox="0 0 36 32" fill="none" xmlns="http://www.w3.org/2000/svg">
<g filter="url(#filter0_d)">
<path d="M28.5533 17.37C28.036 16.7167 28.184 16.426 28.5533 15.842C28.56 15.8353 32.8307 9.93402 33.2707 7.93268L33.2733 7.93135C33.492 7.20202 33.2733 6.66602 32.216 6.66602H28.7173C27.8267 6.66602 27.416 7.12602 27.196 7.64068C27.196 7.64068 25.4147 11.9047 22.8947 14.6687C22.0813 15.4673 21.7053 15.7233 21.2613 15.7233C21.0427 15.7233 20.7027 15.4673 20.7027 14.738V7.93135C20.7027 7.05668 20.4533 6.66602 19.716 6.66602H14.2147C13.656 6.66602 13.324 7.07402 13.324 7.45402C13.324 8.28335 14.584 8.47402 14.7147 10.8073V15.87C14.7147 16.9793 14.5133 17.1833 14.0667 17.1833C12.8773 17.1833 9.99067 12.902 8.28 8.00202C7.93467 7.05135 7.59733 6.66735 6.7 6.66735H3.2C2.20133 6.66735 2 7.12735 2 7.64202C2 8.55135 3.18933 13.0727 7.53067 19.046C10.424 23.1234 14.4987 25.3327 18.2053 25.3327C20.4333 25.3327 20.7053 24.842 20.7053 23.998C20.7053 20.102 20.504 19.734 21.62 19.734C22.1373 19.734 23.028 19.99 25.108 21.9567C27.4853 24.2887 27.876 25.3327 29.2067 25.3327H32.7053C33.7027 25.3327 34.208 24.842 33.9173 23.874C33.252 21.838 28.756 17.65 28.5533 17.37Z" fill="white"/>
</g>
<defs>
<filter id="filter0_d" x="0" y="4.66602" width="35.9989" height="22.6667" filterUnits="userSpaceOnUse" color-interpolation-filters="sRGB">
<feFlood flood-opacity="0" result="BackgroundImageFix"/>
<feColorMatrix in="SourceAlpha" type="matrix" values="0 0 0 0 0 0 0 0 0 0 0 0 0 0 0 0 0 0 127 0"/>
<feOffset/>
<feGaussianBlur stdDeviation="1"/>
<feColorMatrix type="matrix" values="0 0 0 0 1 0 0 0 0 1 0 0 0 0 1 0 0 0 1 0"/>
<feBlend mode="normal" in2="BackgroundImageFix" result="effect1_dropShadow"/>
<feBlend mode="normal" in="SourceGraphic" in2="effect1_dropShadow" result="shape"/>
</filter>
</defs>
</svg>
