<svg width="18" height="12" viewBox="0 0 18 12" fill="none" xmlns="http://www.w3.org/2000/svg">
<g filter="url(#filter0_d)">
<path fill-rule="evenodd" clip-rule="evenodd" d="M2 10L2 8L4 8L4 10L2 10ZM6 6L6 8L4 8L4 6L6 6ZM8 4L6 4L6 6L8 6L8 4ZM10 4L8 4L8 2L10 2L10 4ZM12 6L12 4L10 4L10 6L12 6ZM14 8L14 6L12 6L12 8L14 8ZM14 8L16 8L16 10L14 10L14 8Z" fill="white"/>
</g>
<defs>
<filter id="filter0_d" x="0" y="0" width="18" height="12" filterUnits="userSpaceOnUse" color-interpolation-filters="sRGB">
<feFlood flood-opacity="0" result="BackgroundImageFix"/>
<feColorMatrix in="SourceAlpha" type="matrix" values="0 0 0 0 0 0 0 0 0 0 0 0 0 0 0 0 0 0 127 0"/>
<feOffset/>
<feGaussianBlur stdDeviation="1"/>
<feColorMatrix type="matrix" values="0 0 0 0 1 0 0 0 0 1 0 0 0 0 1 0 0 0 1 0"/>
<feBlend mode="normal" in2="BackgroundImageFix" result="effect1_dropShadow"/>
<feBlend mode="normal" in="SourceGraphic" in2="effect1_dropShadow" result="shape"/>
</filter>
</defs>
</svg>
