<svg width="128" height="128" viewBox="0 0 128 128" fill="none" xmlns="http://www.w3.org/2000/svg">
<g filter="url(#filter0_d)">
<path fill-rule="evenodd" clip-rule="evenodd" d="M111.999 16.0005H123.999V28.0005H117.999V34.0005H111.999V40.0005H105.999V46.0005H99.999V52.0005H93.999V58.0005H87.999V64.0005H81.999V70.0005H75.999V76.0005H69.999V82.0005H63.999V88.0005H57.999V94.0005H51.999V100H45.999V94.0005H39.999V88.0005H33.999V82.0005H27.999V76.0005H21.999V64.0005H33.999V70.0005H39.999V76.0005H45.999V82.0005H51.999V76.0005H57.999V70.0005H63.999V64.0005H69.999V58.0005H75.999V52.0005H81.999V46.0005H87.999V40.0005H93.999V34.0005H99.999V28.0005H105.999V22.0005H111.999V16.0005Z" fill="white"/>
<path fill-rule="evenodd" clip-rule="evenodd" d="M100 4H16V10H10V16H4V112H10V118H16V124H112V118H118V112H124V64H118V106H112V112H106V118H22V112H16V106H10V22H16V16H22V10H100V4Z" fill="white"/>
</g>
<defs>
<filter id="filter0_d" x="0" y="0" width="128" height="128" filterUnits="userSpaceOnUse" color-interpolation-filters="sRGB">
<feFlood flood-opacity="0" result="BackgroundImageFix"/>
<feColorMatrix in="SourceAlpha" type="matrix" values="0 0 0 0 0 0 0 0 0 0 0 0 0 0 0 0 0 0 127 0"/>
<feOffset/>
<feGaussianBlur stdDeviation="2"/>
<feColorMatrix type="matrix" values="0 0 0 0 1 0 0 0 0 1 0 0 0 0 1 0 0 0 1 0"/>
<feBlend mode="normal" in2="BackgroundImageFix" result="effect1_dropShadow"/>
<feBlend mode="normal" in="SourceGraphic" in2="effect1_dropShadow" result="shape"/>
</filter>
</defs>
</svg>
