<svg width="32" height="24" viewBox="0 0 32 24" fill="none" xmlns="http://www.w3.org/2000/svg">
<g filter="url(#filter0_d)">
<path fill-rule="evenodd" clip-rule="evenodd" d="M13.8996 7.15381H18.0996V7.84612H18.7996V8.53842H19.4996V9.23073H20.1996V9.92304H20.8996V14.0769H20.1996V14.7692H19.4996V15.4615H18.7996V16.1538H18.0996V16.8461H13.8996V16.1538H13.1996V15.4615H12.4996V14.7692H11.7996V14.0769H11.0996V9.92304H11.7996V9.23073H12.4996V8.53842H13.1996V7.84612H13.8996V7.15381Z" fill="white"/>
<path fill-rule="evenodd" clip-rule="evenodd" d="M20.2 3H11.8V4.38462H9V5.76923H6.2V7.15385H4.8V8.53846H3.4V10.6154H2V13.3846H3.4V15.4615H4.8V16.8462H6.2V18.2308H9V19.6154H11.8V21H20.2V19.6154H23V18.2308H25.8V16.8462H27.2V15.4615H28.6V13.3846H30V10.6154H28.6V8.53846H27.2V7.15385H25.8V5.76923H23V4.38462H20.2V3ZM27.2 9.92308H25.8V8.53846H24.4V7.15385H21.6V5.76923H18.8V4.38462H13.2V5.76923H10.4V7.15385H7.6V8.53846H6.2V9.92308H4.8V14.0769H6.2V15.4615H7.6V16.8462H10.4V18.2308H13.2V19.6154H18.8V18.2308H21.6V16.8462H24.4V15.4615H25.8V14.0769H27.2V9.92308Z" fill="white"/>
</g>
<defs>
<filter id="filter0_d" x="-2" y="-2" width="36" height="28" filterUnits="userSpaceOnUse" color-interpolation-filters="sRGB">
<feFlood flood-opacity="0" result="BackgroundImageFix"/>
<feColorMatrix in="SourceAlpha" type="matrix" values="0 0 0 0 0 0 0 0 0 0 0 0 0 0 0 0 0 0 127 0"/>
<feOffset/>
<feGaussianBlur stdDeviation="1"/>
<feColorMatrix type="matrix" values="0 0 0 0 1 0 0 0 0 1 0 0 0 0 1 0 0 0 1 0"/>
<feBlend mode="normal" in2="BackgroundImageFix" result="effect1_dropShadow"/>
<feBlend mode="normal" in="SourceGraphic" in2="effect1_dropShadow" result="shape"/>
</filter>
</defs>
</svg>
